# xmcd
#
# Track frame offsets:
#	150
#	9802
#	21329
#	36044
#	47717
#	58515
#	68958
#	86472
#	98744
#	113097
#	125614
#	139827
#	162280
#	174592
#	186069
#	203216
#	218870
#	235804
#	252337
#
# Disc length: 3632 seconds
#
# Revision: 3
# Processed by: cddbd v1.5.2PL0 Copyright (c) Steve Scherf et al.
# Submitted via: audiograbber 1.83.01
#
DISCID=020e2e13
DTITLE=Various Artist - All Time Greatest Country Songs- 2 (1-2)
DYEAR=2001
DGENRE=Country - Int.
TTITLE0=Bob Dylan - To be alone with you (1969)
TTITLE1=Willie Nelson - On the road again (1980)
TTITLE2=Glen Campbell - Rhinestone cowboy (1975)
TTITLE3=Rick Nelson - That's alright mama (1978)
TTITLE4=Tanya Tucker - Would you lay with me (1973)
TTITLE5=Kris Kristofferson - Help me make it through the night (1969)
TTITLE6=Henning Stærk - Brass buttons (1994)
TTITLE7=Johnny Cash - Folson prison blues (1968)
TTITLE8=Van Morrison - Chick-a-boom (1967)
TTITLE9=Roy Orbison - Crying (1961)
TTITLE10=Darleens - Sleeping beauty (1991)
TTITLE11=Sko/Torp - Familiar roads (1992)
TTITLE12=Lynn Anderson - Listen to a country song (1972)
TTITLE13=Crystal Gayle - Don't it make my brown eyes blue (1977)
TTITLE14=Dr Hook - Sylvia's mother (1972)
TTITLE15=Billie Jo Spears - Blanket on the ground (1989)
TTITLE16=Peter Viskinde - Halleluja (2000)
TTITLE17=Linda Ronstadt - Poor poor pityful me (1977)
TTITLE18=Lee Marvin - Wand'rin star (1977)
EXTD=
EXTT0=
EXTT1=
EXTT2=
EXTT3=
EXTT4=
EXTT5=
EXTT6=
EXTT7=
EXTT8=
EXTT9=
EXTT10=
EXTT11=
EXTT12=
EXTT13=
EXTT14=
EXTT15=
EXTT16=
EXTT17=
EXTT18=
PLAYORDER=
